Coordinates
version=1
nRows=10
nColumns=40
inDegrees=yes

Units are S.I. units (second, meters, Newtons, ...)
Angles are in degrees.

endheader
time	pelvis_tilt	pelvis_list	pelvis_rotation	pelvis_tx	pelvis_ty	pelvis_tz	hip_flexion_r	hip_adduction_r	hip_rotation_r	knee_angle_r	knee_angle_r_beta	ankle_angle_r	subtalar_angle_r	mtp_angle_r	hip_flexion_l	hip_adduction_l	hip_rotation_l	knee_angle_l	knee_angle_l_beta	ankle_angle_l	subtalar_angle_l	mtp_angle_l	lumbar_extension	lumbar_bending	lumbar_rotation	arm_flex_r	arm_add_r	arm_rot_r	elbow_flex_r	pro_sup_r	wrist_flex_r	wrist_dev_r	arm_flex_l	arm_add_l	arm_rot_l	elbow_flex_l	pro_sup_l	wrist_flex_l	wrist_dev_l
     40.03000000	     -0.92065861	     -3.94041238	     -3.17373350	      1.10240807	      0.92780972	      0.44812371	     16.88694587	     -0.10835754	     -9.29540510	     23.07948431	     23.07948431	      8.54156075	     -5.91293313	     -2.59108763	      0.55719566	     -8.61361339	    -12.90635898	     27.19396360	     27.19396360	     19.31677865	     -8.11635807	     -2.33981625	     -8.93724942	      5.20699698	     -0.90907773	      1.52077089	    -13.48178483	     -7.57008082	     40.56281637	     45.45480059	      0.00000000	      0.00000000	     13.17000768	    -14.59580295	    -16.12073335	     41.95995818	     46.54458477	      0.00000000	      0.00000000
     40.04314286	     -0.91333812	     -4.10289031	     -2.93739708	      1.10323158	      0.92827250	      0.45124140	     16.22739658	      0.20869902	     -9.69069190	     22.73898401	     22.73898401	      8.84100233	     -5.49778695	     -2.78092916	      2.10439300	     -9.46627365	    -11.98400783	     30.66344715	     30.66344715	     18.03857943	     -9.54156238	     -3.61655623	     -8.81777888	      5.38599962	     -1.02637660	      2.80982487	    -13.51816897	     -7.57570266	     42.33052965	     45.39940136	      0.00000000	      0.00000000	     12.24160118	    -14.22666072	    -15.74394543	     39.67709438	     46.48329359	      0.00000000	      0.00000000
     40.05628571	     -0.68184676	     -4.27552414	     -2.67110628	      1.10410776	      0.92888489	      0.45420404	     15.31109776	      0.49925016	    -10.24633571	     22.40039536	     22.40039536	      9.07823671	     -5.12716763	     -3.32387303	      3.42712462	    -10.26556795	    -11.01108094	     33.94064611	     33.94064611	     14.85032767	    -12.11075090	     -8.57670532	     -8.90492286	      5.67811335	      0.02466766	      2.63762864	    -14.22823419	     -7.04282762	     46.51174289	     45.24360046	      0.00000000	      0.00000000	     12.99943606	    -13.51937194	    -14.42777513	     35.18304720	     46.34994854	      0.00000000	      0.00000000
     40.06942857	     -0.60450087	     -4.49610651	     -2.38127602	      1.10460629	      0.92929370	      0.45725134	     14.55189241	      0.88437243	    -10.73943080	     21.99228596	     21.99228596	      9.34167743	     -4.74893112	     -3.44346597	      5.36139240	    -11.21811354	     -9.98974030	     38.04792227	     38.04792227	     13.09559600	    -13.47249188	     -9.42669429	     -8.90096017	      5.90847663	     -0.04826227	      4.21739101	    -14.24098634	     -7.17554155	     47.95088250	     45.21244355	      0.00000000	      0.00000000	     11.76868634	    -13.15807127	    -14.16196820	     34.08404914	     46.30126406	      0.00000000	      0.00000000
     40.08257143	     -0.48529528	     -4.73760115	     -2.07206902	      1.10490350	      0.92966633	      0.46017950	     13.77042011	      1.29487191	    -11.22139316	     21.59567538	     21.59567538	      9.61387200	     -4.42463036	     -3.53888066	      7.41393536	    -12.16039407	     -8.89665134	     42.27494220	     42.27494220	     11.11495466	    -14.66216717	     -9.94242550	     -8.98300629	      6.17249388	      0.12632618	      5.74122003	    -14.39859394	     -7.22155011	     49.30370688	     45.17713286	      0.00000000	      0.00000000	     10.67593282	    -12.68350176	    -13.94532414	     33.10965059	     46.25749564	      0.00000000	      0.00000000
     40.09571429	     -0.40431946	     -4.87430900	     -1.75209210	      1.10497690	      0.92984524	      0.46295096	     13.11853221	      1.55968736	    -11.74548933	     21.32548173	     21.32548173	      9.83584467	     -4.03016596	     -3.91247562	      9.55736699	    -12.87530794	     -7.68334713	     46.31866814	     46.31866814	      8.40493750	    -16.22127368	    -11.18564743	     -9.06558804	      6.30692549	      0.39622870	      6.37595590	    -14.99968716	     -6.34025696	     53.38255689	     45.02096866	      0.00000000	      0.00000000	     10.06453149	    -12.31297918	    -13.07441883	     30.95498185	     46.15339908	      0.00000000	      0.00000000
     40.10885714	     -0.36432563	     -5.03083102	     -1.41246375	      1.10482000	      0.92992582	      0.46560943	     12.54715598	      1.87837229	    -12.12881549	     21.07192208	     21.07192208	     10.04419820	     -3.91200495	     -4.00406982	     11.90918152	    -13.56717094	     -6.46039754	     50.46362842	     50.46362842	      6.40825867	    -16.93763685	    -10.31867060	     -9.10562713	      6.44217823	      0.34720754	      7.91322624	    -15.13380010	     -6.32916919	     55.43589271	     44.97003561	      0.00000000	      0.00000000	      8.91960428	    -11.97777503	    -12.72863227	     29.88173404	     46.09855647	      0.00000000	      0.00000000
     40.12200000	     -0.31096827	     -5.14924630	     -1.05262434	      1.10441945	      0.92998155	      0.46800451	     12.00550849	      2.13338067	    -12.53005843	     20.85659577	     20.85659577	     10.29676233	     -3.74312602	     -4.15857373	     14.30568571	    -14.02722705	     -5.07860679	     54.45518060	     54.45518060	      5.22662034	    -17.16836278	     -7.41145245	     -9.24717142	      6.52884805	      0.70969188	      9.04057542	    -15.65793911	     -5.88507763	     58.43276426	     44.88157185	      0.00000000	      0.00000000	      7.95347921	    -11.55477673	    -12.26428152	     28.88021410	     46.04094412	      0.00000000	      0.00000000
     40.13514286	     -0.30771919	     -5.24083819	     -0.68219401	      1.10388510	      0.92996959	      0.47027923	     11.53275423	      2.37189023	    -12.87820969	     20.64205037	     20.64205037	     10.52501756	     -3.69559755	     -4.20726350	     16.65416753	    -14.41617285	     -3.85840650	     57.93192016	     57.93192016	      3.72011546	    -17.43932348	     -5.58624613	     -9.27680971	      6.56595321	      0.71127113	     10.71167897	    -15.79214994	     -5.90516257	     60.42118934	     44.83469041	      0.00000000	      0.00000000	      6.73423082	    -11.21195410	    -12.09139172	     28.07804386	     46.00711271	      0.00000000	      0.00000000
     40.14828571	     -0.26836635	     -5.25296398	     -0.30083596	      1.10319847	      0.93006721	      0.47224855	     11.05799011	      2.49352497	    -13.24237530	     20.47294214	     20.47294214	     10.76391037	     -3.57276834	     -4.31291178	     18.98887112	    -14.50661027	     -2.56635692	     61.16347312	     61.16347312	      3.69739094	    -17.16897574	     -0.46606495	     -9.44106659	      6.51964030	      1.15119930	     11.67551686	    -16.54883187	     -5.36473400	     63.62072205	     44.75012880	      0.00000000	      0.00000000	      5.76067971	    -10.74645612	    -11.88090852	     27.56350189	     45.99486142	      0.00000000	      0.00000000
